<?xml version="1.0" encoding="utf-8"?>
<!-- Generator: Adobe Illustrator 21.0.2, SVG Export Plug-In . SVG Version: 6.00 Build 0)  -->
<svg version="1.1" id="Слой_1" xmlns="http://www.w3.org/2000/svg" xmlns:xlink="http://www.w3.org/1999/xlink" x="0px" y="0px"
	 viewBox="0 0 220 240" style="enable-background:new 0 0 220 240;" xml:space="preserve">
<style type="text/css">
	.st0{fill:#B6FFF1;}
</style>
<g>
	<g>
		<path class="st0" d="M102.9,70.9c0-9.8,7.9-17.8,17.8-17.8h7.6c9.8,0,17.8,7.9,17.8,17.8v7.2h2v-7.2c0-10.9-8.8-19.8-19.8-19.8
			h-7.6c-10.9,0-19.8,8.8-19.8,19.8v7.2h2C102.9,78.2,102.9,70.9,102.9,70.9z M181.6,49.3c9.5,0,17.2-7.7,17.2-17.3
			c0-9.4-7.7-17.2-17.2-17.2s-17.2,7.7-17.2,17.3C164.3,41.6,172,49.3,181.6,49.3z M181.6,16.8c8.4,0,15.2,6.8,15.2,15.3
			s-6.8,15.3-15.2,15.3c-8.3,0-15.2-6.8-15.2-15.3S173.1,16.8,181.6,16.8z M78.6,105.3c0,9.5,7.7,17.3,17.2,17.3s17.2-7.7,17.2-17.3
			S105.2,88,95.8,88S78.6,95.8,78.6,105.3z M95.8,90.1c8.4,0,15.2,6.8,15.2,15.3s-6.8,15.3-15.2,15.3s-15.2-6.9-15.2-15.4
			S87.5,90.1,95.8,90.1z M107.2,177.6c0,9.5,7.7,17.3,17.2,17.3s17.2-7.7,17.2-17.3s-7.7-17.3-17.2-17.3S107.2,168,107.2,177.6z
			 M124.4,162.3c8.4,0,15.2,6.8,15.2,15.3c0,8.4-6.8,15.3-15.2,15.3s-15.2-6.8-15.2-15.3C109.2,169.1,116,162.3,124.4,162.3z
			 M124.4,49.3c9.5,0,17.2-7.7,17.2-17.3s-7.7-17.3-17.2-17.3s-17.2,7.8-17.2,17.4C107.2,41.6,114.9,49.3,124.4,49.3z M124.4,16.8
			c8.4,0,15.2,6.8,15.2,15.3s-6.8,15.3-15.2,15.3s-15.2-6.8-15.2-15.3S116,16.8,124.4,16.8z M135.7,105.3c0,9.5,7.7,17.3,17.2,17.3
			s17.2-7.7,17.2-17.3S162.3,88,152.9,88S135.7,95.8,135.7,105.3z M153,90.1c8.4,0,15.2,6.8,15.2,15.3s-6.8,15.3-15.2,15.3
			c-8.3,0-15.2-6.8-15.2-15.3S144.5,90.1,153,90.1z M67.2,49.3c9.5,0,17.2-7.7,17.2-17.3c0-9.4-7.6-17.2-17.2-17.2S50,22.6,50,32.1
			C50,41.6,57.7,49.3,67.2,49.3z M67.2,16.8c8.4,0,15.2,6.8,15.2,15.3s-6.8,15.2-15.2,15.2S52,40.5,52,32S58.8,16.8,67.2,16.8z
			 M45.7,70.9c0-9.8,7.9-17.8,17.8-17.8h7.6c9.8,0,17.8,7.9,17.8,17.8v7.2h2v-7.2c0-10.9-8.8-19.8-19.8-19.8h-7.6
			c-10.9,0-19.8,8.8-19.8,19.8v7.2h2C45.7,78.2,45.7,70.9,45.7,70.9z M164.3,177.6c0,9.5,7.7,17.3,17.2,17.3s17.2-7.7,17.2-17.3
			s-7.7-17.3-17.2-17.3S164.3,168,164.3,177.6z M181.6,162.3c8.4,0,15.2,6.8,15.2,15.3c0,8.4-6.8,15.3-15.2,15.3
			c-8.3,0-15.2-6.8-15.2-15.3C166.4,169.1,173.1,162.3,181.6,162.3z M185.2,51.3h-7.6c-10.9,0-19.8,8.8-19.8,19.8v7.2h2V71
			c0-9.8,7.9-17.8,17.8-17.8h7.6c9.8,0,17.8,7.9,17.8,17.8v7.2h2V71C205,60.1,196.2,51.3,185.2,51.3z M128.2,196.7h-7.6
			c-10.9,0-19.8,8.8-19.8,19.8v7.2h2v-7.2c0-9.8,7.9-17.8,17.8-17.8h7.6c9.8,0,17.8,7.9,17.8,17.8v7.2h2v-7.2
			C147.9,205.5,139,196.7,128.2,196.7z M185.2,196.7h-7.6c-10.9,0-19.8,8.8-19.8,19.8v7.2h2v-7.2c0-9.8,7.9-17.8,17.8-17.8h7.6
			c9.8,0,17.8,7.9,17.8,17.8v7.2h2v-7.2C205,205.5,196.2,196.7,185.2,196.7z M174.4,144.2v7.2h2v-7.2c0-10.9-8.8-19.8-19.8-19.8
			h-7.5c-10.9,0-19.8,8.8-19.8,19.8v7.2h2v-7.2c0-9.8,7.9-17.8,17.8-17.8h7.6C166.5,126.4,174.4,134.4,174.4,144.2z M38.6,122.6
			c9.5,0,17.2-7.7,17.2-17.3S48.1,88,38.6,88s-17.2,7.7-17.2,17.3S29.2,122.6,38.6,122.6z M38.6,90.1c8.4,0,15.2,6.8,15.2,15.3
			s-6.8,15.3-15.2,15.3s-15.2-6.9-15.2-15.4S30.3,90.1,38.6,90.1z M50,177.6c0,9.5,7.7,17.3,17.2,17.3s17.2-7.7,17.2-17.3
			s-7.7-17.3-17.2-17.3S50,168,50,177.6z M67.2,162.3c8.4,0,15.2,6.8,15.2,15.3c0,8.4-6.8,15.3-15.2,15.3S52,186,52,177.6
			C52,169.1,58.8,162.3,67.2,162.3z M117.3,144.2v7.2h2v-7.2c0-10.9-8.8-19.8-19.8-19.8h-7.6c-10.9,0-19.8,8.8-19.8,19.8v7.2h2v-7.2
			c0-9.8,7.9-17.8,17.8-17.8h7.6C109.4,126.4,117.3,134.4,117.3,144.2z M71,196.7h-7.6c-10.9,0-19.8,8.8-19.8,19.8v7.2h2v-7.2
			c0-9.8,7.9-17.8,17.8-17.8H71c9.8,0,17.8,7.9,17.8,17.8v7.2h2v-7.2C90.7,205.5,81.8,196.7,71,196.7z M60.2,144.2v7.2h2v-7.2
			c0-10.9-8.8-19.8-19.8-19.8h-7.6c-10.9,0-19.8,8.8-19.8,19.8v7.2h2v-7.2c0-9.8,7.9-17.8,17.8-17.8h7.6
			C52.2,126.4,60.2,134.4,60.2,144.2z"/>
	</g>
</g>
</svg>
